<svg width="197" height="48" viewBox="0 0 197 48" fill="none" xmlns="http://www.w3.org/2000/svg">
  <path d="M52.2158 17.7896V22.6104H61.8889V27.4H52.2158V34.913H46.0176V13H63.2037V17.7896H52.2158Z" fill="white"/>
  <path d="M82.7965 26.4609C82.7965 26.5026 82.7652 26.993 82.7026 27.9322H70.3687C70.6191 28.8087 71.0991 29.487 71.8087 29.967C72.5391 30.4261 73.447 30.6557 74.5322 30.6557C75.3461 30.6557 76.0452 30.5409 76.6296 30.3113C77.2348 30.0817 77.84 29.7061 78.4452 29.1843L81.5757 32.44C79.927 34.2765 77.5165 35.1948 74.3443 35.1948C72.3617 35.1948 70.6191 34.8191 69.1165 34.0678C67.6139 33.3165 66.4452 32.273 65.6104 30.9374C64.7965 29.6017 64.3896 28.0887 64.3896 26.3983C64.3896 24.7287 64.7861 23.2365 65.5791 21.9217C66.393 20.5861 67.5096 19.5426 68.9287 18.7913C70.3478 18.04 71.9443 17.6643 73.7183 17.6643C75.4087 17.6643 76.9426 18.0191 78.32 18.7287C79.6974 19.4174 80.7826 20.4296 81.5757 21.7652C82.3896 23.08 82.7965 24.6452 82.7965 26.4609ZM73.7496 21.8904C72.8313 21.8904 72.0591 22.1513 71.433 22.673C70.8278 23.1948 70.4417 23.9043 70.2748 24.8017H77.2243C77.0574 23.9043 76.6609 23.1948 76.0348 22.673C75.4296 22.1513 74.6678 21.8904 73.7496 21.8904Z" fill="white"/>
  <path d="M96.5893 17.6643C98.6971 17.6643 100.388 18.2904 101.661 19.5426C102.954 20.7948 103.601 22.6835 103.601 25.2087V34.913H97.6536V26.1791C97.6536 23.8626 96.7249 22.7043 94.8675 22.7043C93.8449 22.7043 93.0206 23.0383 92.3945 23.7061C91.7893 24.3739 91.4867 25.3757 91.4867 26.7113V34.913H85.5388V17.9461H91.2049V19.793C91.8727 19.1043 92.6658 18.5826 93.5841 18.2278C94.5023 17.8522 95.5041 17.6643 96.5893 17.6643Z" fill="white"/>
  <path d="M125.612 13V34.913H119.945V33.2226C118.839 34.5374 117.18 35.1948 114.968 35.1948C113.424 35.1948 112.015 34.84 110.742 34.1304C109.469 33.4 108.457 32.367 107.705 31.0313C106.975 29.6957 106.61 28.1513 106.61 26.3983C106.61 24.6452 106.975 23.1113 107.705 21.7965C108.457 20.4609 109.469 19.4383 110.742 18.7287C112.015 18.0191 113.424 17.6643 114.968 17.6643C116.992 17.6643 118.558 18.2487 119.664 19.4174V13H125.612ZM116.22 30.4678C117.243 30.4678 118.088 30.113 118.756 29.4035C119.424 28.673 119.758 27.6713 119.758 26.3983C119.758 25.1461 119.424 24.1652 118.756 23.4557C118.109 22.7461 117.264 22.3913 116.22 22.3913C115.177 22.3913 114.321 22.7461 113.653 23.4557C112.985 24.1652 112.652 25.1461 112.652 26.3983C112.652 27.6713 112.985 28.673 113.653 29.4035C114.321 30.113 115.177 30.4678 116.22 30.4678Z" fill="white"/>
  <path d="M151.946 13L142.555 34.913H136.45L127.09 13H133.79L139.737 27.2748L145.81 13H151.946Z" fill="white"/>
  <path d="M163.246 13C165.229 13 166.951 13.3339 168.411 14.0017C169.872 14.6487 170.999 15.5878 171.792 16.8191C172.585 18.0296 172.982 19.4591 172.982 21.1078C172.982 22.7565 172.585 24.1861 171.792 25.3965C170.999 26.607 169.872 27.5461 168.411 28.2139C166.951 28.8609 165.229 29.1843 163.246 29.1843H159.427V34.913H153.229V13H163.246ZM162.871 24.3009C164.144 24.3009 165.104 24.0296 165.751 23.487C166.398 22.9235 166.721 22.1304 166.721 21.1078C166.721 20.0852 166.398 19.2922 165.751 18.7287C165.104 18.1652 164.144 17.8835 162.871 17.8835H159.427V24.3009H162.871Z" fill="white"/>
  <path d="M196.853 13V34.913H191.75L182.077 23.2365V34.913H176.004V13H181.107L190.78 24.6765V13H196.853Z" fill="white"/>
  <path d="M18.6176 0.00818603C18.5357 0.0240574 18.4557 0.0485841 18.3791 0.0813504L0.77038 6.51982C0.5448 6.60218 0.349986 6.75159 0.212226 6.94784C0.0744662 7.14409 0.000391904 7.37773 0 7.61728V26.9327C0 31.5089 2.58771 35.3035 6.07136 38.6207C9.55495 41.938 13.999 44.8736 18.104 47.7846C18.3024 47.9247 18.5395 48 18.7826 48C19.0257 48 19.2629 47.9247 19.4612 47.7846C23.5662 44.8736 28.0103 41.938 31.4939 38.6207C34.9775 35.3035 37.5652 31.5089 37.5652 26.9327V7.61728C37.5648 7.37773 37.4907 7.14409 37.353 6.94784C37.2152 6.75159 37.0204 6.60218 36.7948 6.51982L19.1861 0.0813504C19.0056 0.0104825 18.8102 -0.0146551 18.6176 0.00818603Z" fill="#0A8039"/>
  <path d="M10.4346 12.5215H29.2172V18.7824H10.4346V12.5215Z" fill="white"/>
  <path d="M10.4346 20.8693H22.9563V27.1302H10.4346V20.8693Z" fill="white"/>
  <path d="M10.4346 29.2171H16.6954V35.478H10.4346V29.2171Z" fill="white"/>
</svg>

